<?xml version="1.0" standalone="no"?><!DOCTYPE svg PUBLIC "-//W3C//DTD SVG 1.1//EN" "http://www.w3.org/Graphics/SVG/1.1/DTD/svg11.dtd"><svg t="1674361124525" class="icon" viewBox="0 0 1024 1024" version="1.1" xmlns="http://www.w3.org/2000/svg" p-id="4139" xmlns:xlink="http://www.w3.org/1999/xlink" width="200" height="200"><path d="M888.704 475.328a49.088 49.088 0 0 1-50.048-49.984v-240H600.32a49.088 49.088 0 0 1-49.984-49.984c0-28.352 21.696-50.048 49.984-50.048h289.984c28.352 0 50.048 21.696 50.048 50.048v289.92c-1.664 26.752-23.36 50.048-51.648 50.048z" fill="#172B4D" p-id="4140"></path><path d="M135.36 938.688a48 48 0 0 1-35.008-15.04c-20.032-19.968-20.032-51.648 0-69.952l753.28-753.344c20.032-20.032 51.712-20.032 70.016 0 20.032 19.968 20.032 51.648 0 70.016L170.368 925.248a53.76 53.76 0 0 1-35.008 13.376zM888.704 938.688H600.32a49.088 49.088 0 0 1-49.984-49.984c0-28.352 21.696-50.048 49.984-50.048h240V600.32c0-28.288 21.696-49.984 49.984-49.984 28.352 0 50.048 21.696 50.048 49.984v289.984a51.328 51.328 0 0 1-51.648 48.384z" fill="#172B4D" p-id="4141"></path><path d="M888.64 938.688a48 48 0 0 1-34.944-15.04L566.912 638.72c-19.968-19.968-19.968-51.648 0-69.952 20.032-20.032 51.712-20.032 70.016 0l286.72 286.656c19.968 19.968 19.968 51.648 0 69.952a50.56 50.56 0 0 1-35.072 13.376zM425.344 475.328a48 48 0 0 1-35.008-15.04l-289.984-289.92c-20.032-20.032-20.032-51.712 0-70.08 19.968-18.304 51.648-19.968 70.016 0L460.288 390.4c20.032 19.968 20.032 51.648 0 69.952a50.816 50.816 0 0 1-34.944 15.04z" fill="#172B4D" p-id="4142"></path></svg>