<?xml version="1.0" standalone="no"?>
<!DOCTYPE svg PUBLIC "-//W3C//DTD SVG 1.1//EN" "http://www.w3.org/Graphics/SVG/1.1/DTD/svg11.dtd"><svg t="1640604228180"
    class="icon" viewBox="0 0 1024 1024" version="1.1" xmlns="http://www.w3.org/2000/svg" p-id="5351"
    xmlns:xlink="http://www.w3.org/1999/xlink" width="200" height="200">
    <defs>
        <style type="text/css"></style>
    </defs>
    <path
        d="M825.5 97h-634c-46.1 0-83.5 37.4-83.5 83.5v634c0 46.1 37.4 83.5 83.5 83.5h634c46.1 0 83.5-37.4 83.5-83.5v-634c0-46.1-37.4-83.5-83.5-83.5z m35.4 714.3c0 18.3-14.9 33.2-33.2 33.2H193c-18.3 0-33.2-14.9-33.2-33.2V176.6c0-18.3 14.9-33.2 33.2-33.2h634.7c18.3 0 33.2 14.9 33.2 33.2v634.7z"
        fill="" p-id="5352"></path>
    <path
        d="M146.3 506.5h-25.5c-3.5 0-6.4-2.8-6.4-6.4 0-3.5 2.8-6.4 6.4-6.4h25.5c3.5 0 6.4 2.8 6.4 6.4 0 3.5-2.9 6.4-6.4 6.4z m679.5 0h-48.5c-3.5 0-6.4-2.8-6.4-6.4 0-3.5 2.8-6.4 6.4-6.4h48.5c3.5 0 6.4 2.8 6.4 6.4-0.1 3.5-2.9 6.4-6.4 6.4z m-97.1 0h-48.6c-3.5 0-6.4-2.8-6.4-6.4 0-3.5 2.8-6.4 6.4-6.4h48.6c3.5 0 6.4 2.8 6.4 6.4 0 3.5-2.8 6.4-6.4 6.4z m-97 0h-48.6c-3.5 0-6.4-2.8-6.4-6.4 0-3.5 2.9-6.4 6.4-6.4h48.6c3.5 0 6.4 2.8 6.4 6.4 0 3.5-2.9 6.4-6.4 6.4z m-97.1 0h-48.5c-3.5 0-6.4-2.8-6.4-6.4 0-3.5 2.8-6.4 6.4-6.4h48.6c3.4 0.1 6.1 2.9 6.1 6.4-0.1 3.4-2.8 6.2-6.2 6.4z m-97 0H389c-3.5 0-6.4-2.8-6.4-6.4 0-3.5 2.9-6.4 6.4-6.4h48.6c3.5 0 6.4 2.8 6.4 6.4-0.1 3.5-2.9 6.4-6.4 6.4z m-97.1 0H292c-3.5 0-6.4-2.8-6.4-6.4 0-3.5 2.8-6.4 6.4-6.4h48.6c3.5 0 6.4 2.9 6.4 6.4-0.2 3.5-3 6.4-6.5 6.4z m-97.1 0h-48.5c-3.5 0-6.4-2.8-6.4-6.4 0-3.5 2.9-6.4 6.4-6.4h48.5c3.5 0 6.4 2.8 6.4 6.4 0 3.5-2.9 6.4-6.4 6.4z m656.4 0h-25.5c-3.5 0-6.4-2.8-6.4-6.4 0-3.5 2.8-6.4 6.4-6.4h25.5c3.4 0.1 6.1 2.9 6.1 6.4 0.1 3.4-2.6 6.2-6.1 6.4z m0 0"
        fill="" p-id="5353"></path>
    <path
        d="M510.4 896c-3.5 0-6.4-2.9-6.4-6.4v-25.5c0-3.5 2.8-6.4 6.4-6.4 3.5 0 6.4 2.8 6.4 6.4v25.5c-0.1 3.6-2.9 6.4-6.4 6.4z m0-74.2c-3.5 0-6.4-2.9-6.4-6.4v-48.6c0.1-3.4 2.9-6.1 6.4-6.1 3.4 0 6.2 2.7 6.4 6.1v48.6c-0.1 3.6-2.9 6.4-6.4 6.4z m0-97c-3.5 0-6.4-2.9-6.4-6.4v-48.6c0.1-3.4 2.9-6.1 6.4-6.1 3.4 0 6.2 2.7 6.4 6.1v48.6c-0.1 3.5-2.9 6.4-6.4 6.4z m0-97c-3.5 0-6.4-2.9-6.4-6.4v-48.5c0.1-3.4 2.9-6.1 6.4-6.1 3.4 0 6.2 2.7 6.4 6.1v48.5c-0.1 3.5-2.9 6.4-6.4 6.4z m0-97.1c-3.5 0-6.4-2.8-6.4-6.4v-48.6c0-3.5 2.8-6.4 6.4-6.4 3.5 0 6.4 2.9 6.4 6.4v48.6c-0.1 3.5-2.9 6.4-6.4 6.4z m0-97.1c-3.5 0-6.4-2.9-6.4-6.4v-48.6c0-3.5 2.8-6.4 6.4-6.4 3.5 0 6.4 2.8 6.4 6.4v48.5c-0.1 3.7-2.9 6.5-6.4 6.5z m0-97c-3.5 0-6.4-2.9-6.4-6.4v-48.6c0-3.5 2.8-6.4 6.4-6.4 3.5 0 6.4 2.8 6.4 6.4v48.6c-0.1 3.5-2.9 6.4-6.4 6.4z m0-97.1c-3.5 0-6.4-2.8-6.4-6.4v-48.5c0-3.5 2.8-6.4 6.4-6.4 3.5 0 6.4 2.8 6.4 6.4v48.5c-0.1 3.5-2.9 6.4-6.4 6.4z m0-97.1c-3.5 0-6.4-2.8-6.4-6.4v-25.5c0-3.5 2.8-6.4 6.4-6.4 3.5 0 6.4 2.8 6.4 6.4V136c-0.1 3.6-2.9 6.4-6.4 6.4z m0 0"
        fill="" p-id="5354"></path>
    <path
        d="M570.7 555.8c28.2 34.9 62.6 64.3 101.5 86.7 37.9 21.5 84.5 37.1 140.1 46.8 9.6 1.3 14.4 4.1 14.4 8.2 0 2.4-2.9 4.6-8.6 6.9-5.7 2.3-22.3 4.9-49.5 7.9-27.3 3.1-50.2 4.6-68.8 4.6-18.5 0-32.9-3.1-43-9-10.1-6-26.5-22.4-49.3-49.5-20.3-23.9-39.3-49-56.8-75-31.2 37.6-64.5 66.2-100.1 85.6-35.5 19.6-68.9 29.3-100.1 29.3-10.1 0-15.2-1.8-15.2-5.2 0-3.3 3.9-6.5 11.7-9.3 37.9-12.3 73.6-30.4 106-53.7 32.5-23.4 58-49.5 76.4-78.5-31.2-47.2-54.3-79.8-69.5-97.7-15.1-17.9-27.8-30.4-37.8-37.5-10.1-7-15.2-12.8-15.2-17.2 0-4.4 3.2-6.5 9.7-6.5 31.2 0 59.8 23.2 86 69.5 5.9 10.6 20.1 30.5 42.6 59.8 18.4-35.8 32.6-71.9 42.7-108.7 10-36.7 15.1-59.6 15.1-68.8 0-6.4-3-9.6-9-9.6-16 0-41.9 5.4-77.8 16.1-35.8 10.8-58.4 16.1-67.8 16.1-9.4 0-18.8-2.5-28.2-7.6-9.4-5-14.1-9.5-14.1-13.4 0-3.9 4.8-6.1 14.4-6.6 26.6-0.9 59.4-6.2 98.4-15.9 38.9-9.6 67.4-21.1 85.2-34.3 5-4.1 11.4-6.3 17.9-6.2 6.9 0 19.1 5.8 36.5 17.2 17.4 11.4 26.1 20.1 26.1 25.8 0 5.7-5 12.9-15.2 21.6-14.7 12.4-27.1 34.2-37.1 65.4-18 57.2-38.6 104.6-61.6 142.7z m0 0M238.1 412.3c18.8 0 35.5 4.5 50.2 13.4 14.7 8.9 22 21.6 22 37.8 0 16.3-4.6 24.4-13.8 24.4-9.2 0-23.4-10.1-42.7-30.3-19.1-20-28.8-32.6-28.8-37.6 0-5.1 4.3-7.7 13.1-7.7z m139.6 35.2c3.2 0 4.8 2.4 4.8 7.2 0 4.8-2 11.6-6.2 20.3-20.2 48.7-39.2 97.9-57.1 147.5-15.6 43.8-24.4 73.8-26.5 90.1-2.1 16.3-6.5 24.5-13.1 24.5s-15.8-9.7-27.1-29.3c-11.4-19.5-17.2-33.6-17.2-42.3 0-6 3.2-10.2 9.6-13.1 6.6-2.8 12.3-7.3 16.5-13.1 4.6-6 18.1-28.3 40.6-67 22.5-38.6 41.8-73.3 57.8-104.1 7.9-13.8 13.8-20.7 17.9-20.7z m-86.6-184.4c11.4 0 24.1 1.9 38.2 5.9 14 3.9 24 10.5 29.9 20 6 9.4 8.9 17.6 8.9 24.7 0 7.1-1.6 12.5-4.8 16.1-3.1 3.6-7.6 5.6-12.4 5.5-8.7 0-22.9-10-42.3-29.9-19.5-20-29.2-32.1-29.2-36.2 0-4 3.8-6.1 11.7-6.1z m0 0"
        fill="" p-id="5355"></path>
</svg>