<?xml version="1.0" encoding="UTF-8" standalone="no"?>
<svg
   width="300"
   height="300"
   viewBox="0 0 300 300"
   version="1.1"
   id="svg4"
   sodipodi:docname="appicon.svg"
   xml:space="preserve"
   inkscape:version="1.2 (dc2aedaf03, 2022-05-15)"
   xmlns:inkscape="http://www.inkscape.org/namespaces/inkscape"
   xmlns:sodipodi="http://sodipodi.sourceforge.net/DTD/sodipodi-0.dtd"
   xmlns="http://www.w3.org/2000/svg"
   xmlns:svg="http://www.w3.org/2000/svg"><defs
     id="defs8" /><sodipodi:namedview
     id="namedview6"
     pagecolor="#ffffff"
     bordercolor="#000000"
     borderopacity="0.25"
     inkscape:showpageshadow="2"
     inkscape:pageopacity="0.0"
     inkscape:pagecheckerboard="0"
     inkscape:deskcolor="#d1d1d1"
     showgrid="false"
     inkscape:zoom="2.0701754"
     inkscape:cx="270.50848"
     inkscape:cy="181.14407"
     inkscape:window-width="2400"
     inkscape:window-height="1494"
     inkscape:window-x="-11"
     inkscape:window-y="-11"
     inkscape:window-maximized="1"
     inkscape:current-layer="svg4" /><g
     id="g92"
     transform="matrix(0.19277573,0,0,0.20196716,51.300754,46.594329)"><path
       d="m 238.24,798.68 h -0.86 L 128.9,798.26 c -17.44,0 -31.9,-14.46 -31.9,-31.9 0,-17.44 14.46,-31.9 31.9,-31.9 l 108.48,0.42 h 0.42 c 27.66,0 53.6,-13.62 68.92,-37.02 L 578.56,290.3 c 27.22,-40.84 72.74,-65.52 122.1,-65.52 h 0.86 l 193.56,0.86 c 17.44,0 31.9,14.46 31.9,31.9 0,17.44 -14.46,31.9 -31.9,31.9 l -193.56,-0.86 h -0.42 c -27.66,0 -53.6,13.62 -68.92,37.02 L 360.34,733.16 c -27.24,41.28 -72.76,65.52 -122.1,65.52 z"
       fill="#292d32"
       p-id="2810"
       id="path74" /><path
       d="m 809.96,883.34 c -8.08,0 -16.16,-2.98 -22.54,-9.36 -12.34,-12.34 -12.34,-32.76 0,-45.1 L 872.5,743.8 c 12.34,-12.34 32.76,-12.34 45.1,0 12.34,12.34 12.34,32.76 0,45.1 l -85.08,85.08 c -6.38,6.38 -14.46,9.36 -22.56,9.36 z M 379.9,400.48 c -9.78,0 -19.58,-4.68 -25.96,-13.18 L 308,323.48 c -15.74,-21.7 -41.7,-34.46 -67.64,-34.46 l -111.04,0.42 c -19.58,-0.42 -31.9,-14.04 -31.9,-31.9 0,-17.44 14.04,-31.9 31.9,-31.9 l 111.04,-0.42 h 0.86 c 47.22,0 91.46,22.98 119.12,60.84 l 45.94,63.82 c 10.2,14.46 7.24,34.04 -7.24,44.66 -5.94,3.82 -12.32,5.94 -19.14,5.94 z"
       fill="#f7931e"
       p-id="2811"
       id="path76" /><path
       d="m 696,799.1 c -45.1,0 -88.48,-21.28 -116.14,-57 l -51.9,-66.78 c -10.64,-14.04 -8.08,-34.04 5.54,-44.68 14.04,-10.64 34,-8.08 44.62,5.54 l 51.9,66.8 c 15.74,20.42 40.88,30.64 65.98,32.34 l 198.64,-0.86 c 17.44,0 31.9,14.04 31.9,31.9 0,17.44 -14.04,31.9 -31.9,31.9 L 696,799.1 c 0.42,0 0,0 0,0 z"
       fill="#f7931e"
       p-id="2812"
       id="path78" /><path
       d="m 895.06,289.46 c -8.08,0 -16.16,-2.98 -22.54,-9.36 L 787.42,195 c -12.34,-12.34 -12.34,-32.76 0,-45.1 12.34,-12.34 32.76,-12.34 45.1,0 l 85.08,85.08 c 12.34,12.34 12.34,32.76 0,45.1 -6.38,6.4 -14.46,9.38 -22.54,9.38 z"
       fill="#292d32"
       p-id="2813"
       id="path80" /></g></svg>
